<svg xmlns="http://www.w3.org/2000/svg" width="291.869" height="80" viewBox="0 0 291.869 80">
  <g id="Grupo_11" data-name="Grupo 11" transform="translate(-810.131 -402)">
    <text id="Finder" transform="translate(871 464)" fill="#e562a3" font-size="67" font-family="NasalizationRg-Regular, Nasalization"><tspan x="0" y="0">Finder</tspan></text>
    <path id="_ionicons_svg_logo-github" d="M27.825,0C12.459,0,0,12.782,0,28.533A28.479,28.479,0,0,0,19.031,55.6a2.181,2.181,0,0,0,.472.05,1.346,1.346,0,0,0,1.429-1.416c0-.683-.025-2.472-.037-4.857a12.721,12.721,0,0,1-2.807.335c-5.354,0-6.571-4.161-6.571-4.161-1.267-3.292-3.093-4.174-3.093-4.174C6,39.676,8.41,39.626,8.6,39.626h.012a5.982,5.982,0,0,1,4.261,2.956A5.463,5.463,0,0,0,17.788,45.7a7.826,7.826,0,0,0,3.18-.745,6.164,6.164,0,0,1,1.764-3.814c-6.174-.72-12.671-3.168-12.671-14.1a11.168,11.168,0,0,1,2.857-7.652,10.5,10.5,0,0,1,.273-7.553,2.316,2.316,0,0,1,.621-.062c1.006,0,3.279.385,7.031,2.994a25.864,25.864,0,0,1,13.938,0c3.751-2.609,6.025-2.994,7.031-2.994a2.315,2.315,0,0,1,.621.062,10.5,10.5,0,0,1,.273,7.553,11.214,11.214,0,0,1,2.857,7.652c0,10.956-6.509,13.366-12.708,14.074.994.882,1.888,2.621,1.888,5.279,0,3.814-.037,6.894-.037,7.826a1.339,1.339,0,0,0,1.416,1.429,2.4,2.4,0,0,0,.5-.05A28.474,28.474,0,0,0,55.651,28.533C55.651,12.782,43.192,0,27.825,0Z" transform="translate(810.131 414)" fill="#3b3838"/>
  </g>
</svg>
